<?xml version="1.0" encoding="iso-8859-1"?>
<!-- Generator: Adobe Illustrator 18.0.0, SVG Export Plug-In . SVG Version: 6.00 Build 0)  -->
<!DOCTYPE svg PUBLIC "-//W3C//DTD SVG 1.1//EN" "http://www.w3.org/Graphics/SVG/1.1/DTD/svg11.dtd">
<svg version="1.1" id="Capa_1" xmlns="http://www.w3.org/2000/svg" xmlns:xlink="http://www.w3.org/1999/xlink" x="0px" y="0px"
	 viewBox="0 0 59 59" style="enable-background:new 0 0 59 59;" xml:space="preserve">
<g>
	<g>
		<path style="fill:#556080;" d="M54.892,19H4.108C2.116,19,0.5,17.384,0.5,15.392V3.608C0.5,1.616,2.116,0,4.108,0h50.783
			C56.884,0,58.5,1.616,58.5,3.608v11.783C58.5,17.384,56.884,19,54.892,19z"/>
		<path style="fill:#38454F;" d="M54.892,38H4.108C2.116,38,0.5,36.384,0.5,34.392V22.608C0.5,20.616,2.116,19,4.108,19h50.783
			c1.993,0,3.608,1.616,3.608,3.608v11.783C58.5,36.384,56.884,38,54.892,38z"/>
		<path style="fill:#556080;" d="M54.892,57H4.108C2.116,57,0.5,55.384,0.5,53.392V41.608C0.5,39.616,2.116,38,4.108,38h50.783
			c1.993,0,3.608,1.616,3.608,3.608v11.783C58.5,55.384,56.884,57,54.892,57z"/>
		<circle style="fill:#8697CB;" cx="10" cy="9.5" r="3.5"/>
		<circle style="fill:#8697CB;" cx="49.5" cy="8" r="1"/>
		<circle style="fill:#8697CB;" cx="45.5" cy="8" r="1"/>
		<circle style="fill:#8697CB;" cx="51.5" cy="11" r="1"/>
		<circle style="fill:#8697CB;" cx="47.5" cy="11" r="1"/>
		<circle style="fill:#8697CB;" cx="41.5" cy="8" r="1"/>
		<circle style="fill:#8697CB;" cx="43.5" cy="11" r="1"/>
		<circle style="fill:#8697CB;" cx="37.5" cy="8" r="1"/>
		<circle style="fill:#8697CB;" cx="39.5" cy="11" r="1"/>
		<circle style="fill:#8697CB;" cx="33.5" cy="8" r="1"/>
		<circle style="fill:#8697CB;" cx="35.5" cy="11" r="1"/>
		<circle style="fill:#8697CB;" cx="10" cy="28.5" r="3.5"/>
		<circle style="fill:#8697CB;" cx="49.5" cy="27" r="1"/>
		<circle style="fill:#8697CB;" cx="45.5" cy="27" r="1"/>
		<circle style="fill:#8697CB;" cx="51.5" cy="30" r="1"/>
		<circle style="fill:#8697CB;" cx="47.5" cy="30" r="1"/>
		<circle style="fill:#8697CB;" cx="41.5" cy="27" r="1"/>
		<circle style="fill:#8697CB;" cx="43.5" cy="30" r="1"/>
		<circle style="fill:#8697CB;" cx="37.5" cy="27" r="1"/>
		<circle style="fill:#8697CB;" cx="39.5" cy="30" r="1"/>
		<circle style="fill:#8697CB;" cx="33.5" cy="27" r="1"/>
		<circle style="fill:#8697CB;" cx="35.5" cy="30" r="1"/>
		<circle style="fill:#8697CB;" cx="10" cy="47.5" r="3.5"/>
		<circle style="fill:#8697CB;" cx="49.5" cy="46" r="1"/>
		<circle style="fill:#8697CB;" cx="45.5" cy="46" r="1"/>
		<circle style="fill:#8697CB;" cx="51.5" cy="49" r="1"/>
		<circle style="fill:#8697CB;" cx="47.5" cy="49" r="1"/>
		<circle style="fill:#8697CB;" cx="41.5" cy="46" r="1"/>
		<circle style="fill:#8697CB;" cx="43.5" cy="49" r="1"/>
		<circle style="fill:#8697CB;" cx="37.5" cy="46" r="1"/>
		<circle style="fill:#8697CB;" cx="39.5" cy="49" r="1"/>
		<circle style="fill:#8697CB;" cx="33.5" cy="46" r="1"/>
		<circle style="fill:#8697CB;" cx="35.5" cy="49" r="1"/>
	</g>
	<g>
		<path style="fill:#91BAE1;" d="M48.5,46h-2l0,0c-3.633-1.453-6-4.861-6-8.64V34h14v3.36C54.5,41.139,52.133,44.547,48.5,46
			L48.5,46z"/>
		<path style="fill:#91BAE1;" d="M46.5,46h2l0,0c3.633,1.453,6,4.861,6,8.64V58h-14v-3.36C40.5,50.861,42.867,47.453,46.5,46
			L46.5,46z"/>
		<g>
			<path style="fill:#D0E8F9;" d="M37.5,35h1h2h17c0.553,0,1-0.448,1-1s-0.447-1-1-1h-17h-2h-1c-0.553,0-1,0.448-1,1
				S36.947,35,37.5,35z"/>
			<path style="fill:#D0E8F9;" d="M57.499,56.998h-18c-0.003,0-0.006,0.002-0.01,0.002H37.5c-0.553,0-1,0.448-1,1s0.447,1,1,1h3
				c0.003,0,0.006-0.002,0.01-0.002h16.989c0.553,0,1-0.448,1-1S58.052,56.998,57.499,56.998z"/>
		</g>
	</g>
</g>
<g>
</g>
<g>
</g>
<g>
</g>
<g>
</g>
<g>
</g>
<g>
</g>
<g>
</g>
<g>
</g>
<g>
</g>
<g>
</g>
<g>
</g>
<g>
</g>
<g>
</g>
<g>
</g>
<g>
</g>
</svg>
